<svg xmlns="http://www.w3.org/2000/svg" viewBox="-2 18 934 262" role="img" aria-label="Activemos Joven">
  <text x="4" y="150" font-family="Fredoka, sans-serif" font-weight="700" font-size="130" letter-spacing="-2">
    <tspan fill="#00B7EB">ACTI</tspan><tspan fill="#EA5E1F">VEMOS</tspan>
  </text>

  <circle cx="868" cy="100" r="56" fill="#00B7EB"/>
  <path d="M840 102 L860 122 L900 78" stroke="#FFFFFF" stroke-width="13" fill="none" stroke-linecap="round" stroke-linejoin="round"/>

  <g transform="rotate(-4 715 228)">
    <path d="M562,196 L560,191 L580,188 L600,194 L620,189 L640,193 L660,188 L680,194 L700,189 L720,193 L740,188 L760,194 L780,189 L800,193 L820,189 L836,192 L838,258 L820,262 L800,257 L780,262 L760,257 L740,261 L720,256 L700,262 L680,257 L660,261 L640,256 L620,262 L600,257 L580,261 L562,258 Z" fill="#FBF7EE"/>
    <text x="586" y="240" font-family="Fredoka, sans-serif" font-weight="600" font-size="52" fill="#ED25B2">JOVEN</text>
    <circle cx="574" cy="222" r="7" fill="#00B7EB"/>
    <circle cx="822" cy="222" r="7" fill="#00B7EB"/>
  </g>
</svg>
